<svg width="19" height="20" viewBox="0 0 19 20" fill="none" xmlns="http://www.w3.org/2000/svg">
<path d="M14.8913 2.24636L2.16342 14.9743C1.46047 15.6772 1.46047 16.8169 2.16342 17.5199C2.86636 18.2228 4.00606 18.2228 4.709 17.5199L17.4369 4.79194C18.1399 4.089 18.1399 2.9493 17.4369 2.24636C16.734 1.54341 15.5943 1.54341 14.8913 2.24636Z" fill="black"/>
<path d="M17.5461 15.084L4.8182 2.35604C4.11526 1.6531 2.97556 1.6531 2.27262 2.35604C1.56967 3.05899 1.56967 4.19868 2.27262 4.90163L15.0005 17.6296C15.7035 18.3325 16.8432 18.3325 17.5461 17.6296C18.2491 16.9266 18.2491 15.7869 17.5461 15.084Z" fill="black"/>
</svg>
