<svg width="25" height="26" viewBox="0 0 25 26" fill="none" xmlns="http://www.w3.org/2000/svg">
<path d="M13.0147 22.2954C15.2696 22.2954 17.1936 18.8027 17.6961 17.9694C18.3211 16.9645 18.0269 15.9596 18.0269 15.3346C18.0269 14.8934 19.3259 13.962 19.3259 12.8958C19.3259 11.8174 16.8137 10.9596 16.8137 10.3468C16.8137 9.95466 17.1078 9.61154 17.4265 9.61154C17.9657 9.61154 19.2892 11.315 20.0367 11.315C20.5269 11.315 20.5637 10.8861 20.8333 10.8861C21.4583 10.8861 21.5564 14.4032 23.4804 15.2365C24.0073 14.6238 24.326 13.9252 24.326 12.9939C24.326 6.60909 19.0196 1.15566 12.4877 1.16792C8.84804 1.18017 7.50001 2.57723 7.50001 3.80272C7.50001 5.40811 6.18872 5.77575 6.18872 6.74389C6.18872 7.35662 6.61762 7.76103 7.27941 7.76103C8.70095 7.76103 8.68873 6.21693 9.41176 6.21693C9.95097 6.22918 10.4534 7.03801 11.348 7.03801C11.7524 7.03801 11.9485 6.78065 11.973 6.41301C11.9975 6.25369 12.0711 6.18017 12.2181 6.18017C13.0024 6.18017 13.8725 7.06252 13.8725 7.60172C13.8725 8.11643 13.6764 8.50862 13.3578 8.50862C12.8063 8.50862 11.4338 7.85911 10.2084 7.85911C7.46322 7.85911 5.17156 9.80764 5.17156 12.1361C5.17156 14.1581 6.36029 15.3346 8.44363 15.3346C9.70586 15.3346 10.6373 16.1924 10.6373 17.3566C10.6373 19.1703 10.4412 22.2954 13.0147 22.2954ZM16.103 5.60418C15.6495 5.60418 15.4657 5.83703 15.0735 5.83703C14.6936 5.83703 14.4117 5.56742 14.4117 5.18752C14.4117 4.59928 15 4.2684 16.0049 4.2684C16.8627 4.2684 17.5122 4.70958 17.5122 5.28556C17.5122 5.60418 17.3039 5.86154 17.0343 5.86154C16.5931 5.86154 16.3603 5.60418 16.103 5.60418ZM12.5 25.4939C19.3382 25.4939 25 19.8198 25 12.9939C25 6.15566 19.3259 0.493896 12.4877 0.493896C5.66176 0.493896 0 6.15566 0 12.9939C0 19.8198 5.67401 25.4939 12.5 25.4939ZM12.5 23.8272C6.58088 23.8272 1.66667 18.913 1.66667 12.9939C1.66667 7.07477 6.56862 2.16056 12.4877 2.16056C18.4068 2.16056 23.3333 7.07477 23.3333 12.9939C23.3333 18.913 18.4191 23.8272 12.5 23.8272Z" fill="black" fill-opacity="0.85"/>
</svg>
