<svg width="19" height="17" viewBox="0 0 19 17" fill="none" xmlns="http://www.w3.org/2000/svg">
<path d="M0 2.18127C0 1.49692 0.579995 0.942139 1.29545 0.942139H17.7045C18.42 0.942139 19 1.49692 19 2.18127C19 2.86562 18.42 3.4204 17.7045 3.4204H1.29545C0.579995 3.4204 0 2.86562 0 2.18127Z" fill="#24292F"/>
<path d="M0 8.44214C0 7.75779 0.579995 7.20301 1.29545 7.20301H10.7955C11.5109 7.20301 12.0909 7.75779 12.0909 8.44214C12.0909 9.12649 11.5109 9.68127 10.7955 9.68127H1.29545C0.579995 9.68127 0 9.12649 0 8.44214Z" fill="#24292F"/>
<path d="M0 14.9856C0 14.3013 0.579995 13.7465 1.29545 13.7465H7.34091C8.05637 13.7465 8.63637 14.3013 8.63637 14.9856C8.63637 15.67 8.05637 16.2247 7.34091 16.2247H1.29545C0.579995 16.2247 0 15.67 0 14.9856Z" fill="#24292F"/>
</svg>
